<?xml version="1.0" encoding="iso-8859-1"?>
<!-- Uploaded to: SVG Repo, www.svgrepo.com, Generator: SVG Repo Mixer Tools -->
<svg fill="#000000" height="800px" width="800px" version="1.1" id="Layer_1" xmlns="http://www.w3.org/2000/svg" xmlns:xlink="http://www.w3.org/1999/xlink" 
	 viewBox="0 0 512 512" xml:space="preserve">
<g>
	<g>
		<path d="M379.88,135.245c6.276,0,11.365-5.088,11.365-11.365V54.689C391.245,24.534,366.711,0,336.556,0H175.444
			c-30.155,0-54.689,24.534-54.689,54.689v402.622c0,30.155,24.534,54.689,54.689,54.689h161.112
			c30.155,0,54.689-24.534,54.689-54.689V195.196c0-6.277-5.089-11.365-11.365-11.365c-6.276,0-11.365,5.088-11.365,11.365V379.88
			h-225.03V99.161h225.03v24.719C368.515,130.157,373.604,135.245,379.88,135.245z M368.515,402.61v54.7
			c0,17.623-14.336,31.959-31.959,31.959H175.444c-17.623,0-31.959-14.336-31.959-31.959v-54.7H368.515z M143.485,76.431V54.689
			c0-17.623,14.336-31.959,31.959-31.959h161.112c17.623,0,31.959,14.336,31.959,31.959v21.742H143.485z"/>
	</g>
</g>
<g>
	<g>
		<path d="M379.88,146.832c-6.276,0-11.365,5.088-11.365,11.365v5.461c0,6.277,5.089,11.365,11.365,11.365
			c6.276,0,11.365-5.088,11.365-11.365v-5.461C391.245,151.92,386.156,146.832,379.88,146.832z"/>
	</g>
</g>
<g>
	<g>
		<path d="M284.413,37.789h-56.826c-6.276,0-11.365,5.088-11.365,11.365s5.089,11.365,11.365,11.365h56.826
			c6.276,0,11.365-5.088,11.365-11.365S290.689,37.789,284.413,37.789z"/>
	</g>
</g>
<g>
	<g>
		<path d="M256,410.566c-19.428,0-35.232,15.804-35.232,35.232c0,19.428,15.804,35.232,35.232,35.232
			c19.428,0,35.232-15.804,35.232-35.232C291.232,426.37,275.428,410.566,256,410.566z M256,458.3
			c-6.893,0-12.502-5.609-12.502-12.502c0-6.893,5.609-12.502,12.502-12.502c6.893,0,12.502,5.609,12.502,12.502
			C268.502,452.691,262.893,458.3,256,458.3z"/>
	</g>
</g>
</svg>